<svg xmlns="http://www.w3.org/2000/svg" viewBox="0 0 270 60" fill="none">
  <defs>
    <linearGradient id="lgQ" x1="0" y1="0" x2="1" y2="1">
      <stop offset="0%" stop-color="#ffb340"/>
      <stop offset="100%" stop-color="#e8651a"/>
    </linearGradient>
    <linearGradient id="lgS" x1="0" y1="0" x2="1" y2="1">
      <stop offset="0%" stop-color="#4a7ec1"/>
      <stop offset="100%" stop-color="#14375e"/>
    </linearGradient>
  </defs>

  <g font-family="'Comic Sans MS','Chalkboard SE','Marker Felt','Segoe UI',cursive,sans-serif"
     font-weight="700" font-size="40">
    <text x="4"   y="46" fill="url(#lgQ)" transform="rotate(-6 14 38)">Q</text>
    <text x="34"  y="46" fill="url(#lgQ)" transform="rotate( 4 44 38)">u</text>
    <text x="62"  y="46" fill="url(#lgQ)" transform="rotate(-3 72 38)">i</text>
    <text x="76"  y="46" fill="url(#lgQ)" transform="rotate( 6 86 38)">z</text>

    <text x="112" y="46" fill="url(#lgS)" transform="rotate( 5 122 38)">S</text>
    <text x="138" y="46" fill="url(#lgS)" transform="rotate(-4 148 38)">y</text>
    <text x="162" y="46" fill="url(#lgS)" transform="rotate( 3 172 38)">s</text>
    <text x="184" y="46" fill="url(#lgS)" transform="rotate(-5 194 38)">t</text>
    <text x="200" y="46" fill="url(#lgS)" transform="rotate( 4 210 38)">e</text>
    <text x="220" y="46" fill="url(#lgS)" transform="rotate(-3 230 38)">m</text>
  </g>

  <circle cx="22" cy="10" r="3" fill="#ffb340"/>
  <circle cx="100" cy="14" r="2.5" fill="#e8651a"/>
  <circle cx="208" cy="10" r="3" fill="#4a7ec1"/>
</svg>
